PathFileType	4	(X/Y/Z)	c:/Users/goper/Files/vsCode/490R/osim_files/A04/A04_ROM.trc
DataRate	CameraRate	NumFrames	NumMarkers	Units                	OrigDataRate	OrigDataStartFrame	OrigNumFrames
120.00	120.00	9	36	mm	120.0	1	1556
                Frame#	Time	LPSIS			LASIS			LTH1			LTH2			LTH3			LTH4			LLFE			LMFE			LSH1			LSH2			LSH3			LSH4			LLMAL			LMMAL			LCAL			LMTP5			LTOE			LMTP1			RPSIS			RASIS			RTH1			RTH2			RTH3			RTH4			RLFE			RMFE			RSH1			RSH2			RSH3			RSH4			RLMAL			RMMAL			RCAL			RMTP1			RTOE			RMTP5		
		X1	Y1	Z1	X2	Y2	Z2	X3	Y3	Z3	X4	Y4	Z4	X5	Y5	Z5	X6	Y6	Z6	X7	Y7	Z7	X8	Y8	Z8	X9	Y9	Z9	X10	Y10	Z10	X11	Y11	Z11	X12	Y12	Z12	X13	Y13	Z13	X14	Y14	Z14	X15	Y15	Z15	X16	Y16	Z16	X17	Y17	Z17	X18	Y18	Z18	X19	Y19	Z19	X20	Y20	Z20	X21	Y21	Z21	X22	Y22	Z22	X23	Y23	Z23	X24	Y24	Z24	X25	Y25	Z25	X26	Y26	Z26	X27	Y27	Z27	X28	Y28	Z28	X29	Y29	Z29	X30	Y30	Z30	X31	Y31	Z31	X32	Y32	Z32	X33	Y33	Z33	X34	Y34	Z34	X35	Y35	Z35	X36	Y36	Z36

1	0.00000	-281.32428	1037.33044	447.65170	-61.61372	1015.91309	344.25208	-151.56750	701.68488	300.05978	-147.32338	658.56061	291.05560	-90.67989	703.73535	301.43716	-93.14690	659.99133	291.11761	-130.85872	537.66559	290.39441	-110.07195	515.90436	427.43292	-178.74661	444.31824	276.09811	-178.91129	400.70941	272.41794	-117.53522	435.53445	284.93951	-127.04482	393.15463	281.18069	-248.54236	114.32076	271.23932	-222.66051	112.28466	352.28384	-311.21234	71.96313	326.84589	-113.65204	60.86021	224.61559	-61.09125	72.13917	281.85147	-75.89084	56.39803	327.14484	-274.07504	1028.66833	552.44366	-44.92799	1039.48511	632.53204	-161.45059	746.71466	704.09918	-157.30446	705.24829	707.04498	-99.87718	746.38342	711.77020	-105.14424	699.27228	710.80737	-109.37031	555.45984	700.99438	-105.22870	537.45874	585.53760	-200.08836	353.13455	725.78589	-203.07210	305.45660	724.32648	-138.42253	343.93436	728.00018	-151.70245	297.73157	731.62769	-206.54997	112.93243	756.09430	-187.74184	101.52431	621.97253	-282.78970	62.06676	687.58289	-64.97417	52.28214	641.46521	-33.87225	74.85787	687.01660	-70.25587	51.39126	761.23602
2	0.00833	-281.37433	1037.35571	447.68695	-61.60014	1015.94916	344.25397	-151.58098	701.66382	300.08478	-147.31085	658.57385	291.07089	-90.70285	703.74329	301.44821	-93.19215	659.98590	291.12000	-130.91963	537.66187	290.41223	-110.11763	515.93726	427.45029	-178.73363	444.31964	276.08777	-178.91521	400.71396	272.41705	-117.54285	435.55603	284.94019	-127.05233	393.17767	281.18713	-248.53333	114.32528	271.24481	-222.68793	112.29720	352.26883	-311.23825	71.95416	326.83972	-113.64592	60.88140	224.62437	-61.06340	72.15831	281.83337	-76.05077	56.26182	327.03754	-274.09573	1028.70081	552.45337	-44.91831	1039.50098	632.52551	-161.50523	746.73834	704.07483	-157.34229	705.26080	707.02527	-99.92227	746.42664	711.77185	-105.20372	699.31616	710.81207	-109.43135	555.49158	700.98688	-105.25023	537.47272	585.54858	-200.12538	353.17355	725.78436	-203.15715	305.48337	724.32025	-138.44319	343.97015	728.01471	-151.75432	297.73938	731.63739	-206.61438	112.93321	756.07373	-187.74451	101.51697	621.96375	-282.83459	62.11347	687.56671	-64.98269	52.30697	641.45319	-33.89888	74.86796	687.00610	-70.27376	51.43279	761.23907
3	0.01667	-281.37543	1037.34106	447.71542	-61.61952	1015.94244	344.25549	-151.58553	701.66425	300.09265	-147.32753	658.56732	291.06613	-90.72131	703.74152	301.45886	-93.19270	659.99304	291.12778	-130.89746	537.66681	290.40182	-110.12673	515.94635	427.43796	-178.75577	444.34250	276.09113	-178.92232	400.70633	272.43848	-117.55701	435.56070	284.94684	-127.06075	393.18500	281.18610	-248.54175	114.33952	271.24539	-222.73210	112.25011	352.26993	-311.24323	71.92995	326.85770	-113.66705	60.89550	224.60793	-61.11316	72.17536	281.81793	-75.87744	56.44591	327.12735	-274.08539	1028.71667	552.47522	-44.90972	1039.51953	632.51746	-161.54552	746.76581	704.08514	-157.37453	705.30585	707.03137	-99.95097	746.44348	711.77594	-105.24155	699.33942	710.82330	-109.44386	555.50250	700.98676	-105.25840	537.47107	585.55035	-200.15668	353.17944	725.76929	-203.63420	305.43170	724.40234	-138.43515	343.97827	728.00262	-151.74307	297.76129	731.64575	-206.62671	112.95271	756.07843	-187.74809	101.50678	621.96643	-282.86041	62.13189	687.57245	-64.96328	52.33873	641.44104	-33.89892	74.87779	686.98566	-70.27423	51.44366	761.22510
4	0.02500	-281.36407	1037.33240	447.71857	-61.64941	1015.94659	344.25775	-151.59111	701.66949	300.07684	-147.36197	658.57123	291.05014	-90.69394	703.75153	301.43637	-93.17908	660.00958	291.11038	-130.93231	537.65625	290.39407	-110.14124	515.93835	427.44778	-178.78708	444.31750	276.09161	-178.94171	400.70798	272.42273	-117.55343	435.56326	284.93054	-127.06343	393.17700	281.17926	-248.56114	114.31738	271.23224	-222.69241	112.28841	352.27490	-311.23822	71.93253	326.83792	-113.65456	60.88377	224.59679	-61.12761	72.15143	281.83371	-75.89170	56.43939	327.13956	-274.05585	1028.67615	552.47791	-44.93266	1039.49365	632.51398	-161.50714	746.74670	704.08575	-157.35271	705.27545	707.05115	-99.94511	746.42920	711.81470	-105.22331	699.34247	710.84631	-109.41810	555.50531	700.98157	-105.24979	537.46442	585.54431	-200.14369	353.16940	725.78357	-203.13103	305.47089	724.32538	-138.45537	343.95013	728.01685	-151.75136	297.75211	731.63489	-206.61418	112.94068	756.08417	-187.75418	101.51823	621.96704	-282.82199	62.07845	687.56665	-64.98464	52.29834	641.44110	-33.88802	74.86964	687.00531	-70.26779	51.41737	761.22229
5	0.03333	-281.38361	1037.33362	447.72116	-61.64681	1015.94611	344.25397	-151.59569	701.65729	300.07211	-147.33882	658.54932	291.06012	-90.72411	703.72577	301.44257	-93.20495	659.97815	291.11279	-130.94673	537.64801	290.40527	-110.19455	515.90283	427.47806	-178.67209	444.36682	275.85324	-178.90561	400.68863	272.40552	-117.56531	435.54550	284.93604	-127.08441	393.16049	281.18176	-248.55501	114.32359	271.23724	-222.75934	112.20064	352.29141	-311.21762	71.93644	326.82425	-113.68944	60.85910	224.61075	-61.15845	72.09782	281.85324	-75.92439	56.38076	327.14780	-274.11044	1028.68298	552.51898	-44.93618	1039.48242	632.51660	-161.52029	746.70416	704.12964	-157.38589	705.23639	707.07196	-99.96941	746.37024	711.85431	-105.26643	699.27661	710.85944	-109.47395	555.45911	701.00385	-105.25275	537.45782	585.55200	-200.14745	353.12134	725.81342	-203.61745	305.38583	724.43329	-138.47906	343.91583	728.04242	-151.76128	297.74155	731.65991	-206.63264	112.90884	756.09558	-187.75951	101.48579	621.95953	-282.84201	62.03986	687.59070	-65.03230	52.25311	641.46881	-33.91258	74.82880	687.02161	-70.29317	51.39540	761.23792
6	0.04167	-281.37061	1037.33337	447.76389	-61.66763	1015.96356	344.25735	-151.62112	701.66174	300.07324	-147.36855	658.53278	291.06192	-90.73670	703.75684	301.47009	-93.22246	659.99493	291.11160	-130.93158	537.66644	290.40930	-110.18670	515.92004	427.47934	-178.66632	444.38116	275.86929	-178.94922	400.69724	272.43045	-117.57492	435.53067	284.94705	-127.09342	393.17743	281.19223	-248.54744	114.30951	271.25320	-222.75983	112.21229	352.29272	-311.23795	71.90928	326.85376	-113.70950	60.84317	224.62686	-61.08285	72.11936	281.84872	-76.08377	56.22218	327.04355	-274.08392	1028.68066	552.53217	-44.92865	1039.48987	632.51819	-161.49042	746.71240	704.13599	-157.34134	705.21832	707.08044	-99.93910	746.37134	711.85510	-105.22315	699.29913	710.88696	-109.45389	555.45825	701.01337	-105.25838	537.46167	585.57166	-200.14970	353.12613	725.80505	-203.03859	306.36380	725.37585	-138.46992	343.94315	728.03339	-151.48050	297.89484	731.29669	-206.63193	112.92080	756.10620	-187.77063	101.50493	621.97589	-282.84308	62.03191	687.58313	-65.00699	52.26948	641.47437	-33.90140	74.84795	687.01898	-70.28020	51.41206	761.24774
7	0.05000	-281.37857	1037.34131	447.76929	-61.69401	1015.97498	344.26822	-151.61833	701.67560	300.07971	-147.67398	658.62305	290.96457	-90.74401	703.76025	301.47116	-93.21835	660.02185	291.12158	-130.95738	537.67102	290.42056	-110.17327	515.92859	427.48141	-178.81781	444.33090	276.11108	-178.95502	400.71036	272.44424	-117.57217	435.57776	284.94998	-127.07824	393.20068	281.18906	-248.55566	114.32658	271.24860	-222.74648	112.22712	352.29153	-311.23096	71.93861	326.85693	-113.67112	60.87001	224.63965	-61.12898	72.14509	281.86020	-75.89466	56.42088	327.14703	-274.05487	1028.68787	552.53137	-44.92479	1039.50623	632.52954	-161.46120	746.71832	704.17480	-157.29312	705.23267	707.11456	-99.89866	746.38647	711.86047	-105.18855	699.33142	710.88953	-109.42089	555.49646	701.01917	-105.24471	537.48413	585.57227	-200.12688	353.13699	725.80560	-203.17159	305.45169	724.34119	-138.44991	343.94958	728.03552	-151.74182	297.75034	731.65729	-206.61491	112.93550	756.09973	-187.77124	101.53531	621.97424	-282.80127	62.05883	687.59363	-65.00388	52.27871	641.47174	-33.89066	74.86434	687.02722	-70.28038	51.42782	761.24323
8	0.05833	-281.37698	1037.37292	447.77704	-61.67594	1015.97815	344.27057	-151.63736	701.65399	300.08200	-147.65648	658.64441	290.95908	-90.72070	703.79254	301.46619	-93.23653	660.01837	291.13281	-130.94923	537.69055	290.42752	-110.18748	515.93817	427.49030	-178.80490	444.34567	276.11499	-178.95197	400.71872	272.45261	-117.59483	435.60571	284.95361	-127.09219	393.20612	281.20645	-248.56252	114.34293	271.25439	-222.75166	112.24017	352.28683	-311.25839	71.94054	326.86481	-113.68029	60.87424	224.63710	-61.13272	72.14096	281.87329	-75.91845	56.41356	327.15530	-274.11496	1028.71021	552.56158	-44.91612	1039.51721	632.53741	-161.45667	746.73285	704.19684	-157.31160	705.25446	707.13385	-99.86568	746.40631	711.86884	-105.18318	699.31476	710.86823	-109.43261	555.48883	701.00873	-105.25050	537.49725	585.56232	-200.16081	353.16153	725.80469	-203.63208	305.39420	724.41156	-138.46672	343.94580	728.04010	-151.73659	297.75256	731.66101	-206.63277	112.92965	756.08582	-187.74539	101.52914	621.97650	-282.84558	62.08787	687.61603	-64.99546	52.30050	641.47095	-33.90678	74.86337	687.01410	-70.28801	51.43634	761.25006
9	0.06667	-281.38065	1037.37927	447.76651	-61.67509	1015.96332	344.28552	-151.63081	701.66968	300.08017	-147.66388	658.63538	290.95309	-90.74604	703.77252	301.47922	-93.22210	660.00537	291.12436	-130.95811	537.67694	290.43204	-110.17185	515.93738	427.48172	-178.81012	444.34784	276.11453	-178.96402	400.71991	272.45349	-117.58521	435.58310	284.95505	-127.09648	393.18893	281.20599	-248.56165	114.33318	271.24567	-222.70404	112.28504	352.28461	-311.25055	71.95529	326.85788	-113.68159	60.87484	224.60825	-61.14845	72.12910	281.86206	-75.89809	56.41819	327.13705	-274.07367	1028.73596	552.55078	-44.91486	1039.51135	632.53381	-161.41786	746.72137	704.22729	-157.27563	705.25714	707.14795	-99.86683	746.41455	711.88586	-105.14160	699.32013	710.86749	-109.42518	555.47772	701.01038	-105.24812	537.49103	585.56964	-200.11012	353.14783	725.81445	-203.15303	305.46414	724.33325	-138.43376	343.94974	728.03937	-151.73962	297.74176	731.65613	-206.60794	112.92712	756.10828	-187.73801	101.52592	621.95856	-282.86987	62.08949	687.59479	-65.00934	52.28393	641.47614	-33.88992	74.86702	687.03662	-70.28535	51.42523	761.24164
